<svg version="1.2" xmlns="http://www.w3.org/2000/svg" viewBox="0 0 1600 482" width="1600" height="482"><style>.a{fill:#ff6200}.b{fill:#fff}</style><path fill-rule="evenodd" class="a" d="m992.6 376.9c-93 68.5-227.7 105.1-343.8 105.1-162.7 0-309.1-60.2-419.9-160.2-8.8-7.9-1-18.6 9.5-12.5 119.6 69.6 267.5 111.4 420.2 111.4 103 0 216.3-21.3 320.5-65.5 15.7-6.7 28.9 10.3 13.5 21.7z"/><path fill-rule="evenodd" class="a" d="m1031.3 332.7c-11.9-15.2-78.6-7.2-108.5-3.6-9.2 1.1-10.6-6.8-2.3-12.5 53.1-37.4 140.3-26.6 150.5-14.1 10.1 12.6-2.7 100-52.6 141.7-7.7 6.4-15 3-11.6-5.5 11.2-28 36.4-90.7 24.5-106z"/><path fill-rule="evenodd" class="b" d="m924.8 52.6v-36.3c0-5.5 4.2-9.2 9.2-9.2h162.8c5.2 0 9.4 3.8 9.4 9.2v31.1c-0.1 5.2-4.4 12-12.2 22.8l-84.4 120.4c31.3-0.8 64.4 3.9 92.8 19.9 6.4 3.6 8.2 8.9 8.7 14.2v38.7c0 5.3-5.9 11.5-12 8.3-50.1-26.2-116.6-29.1-172 0.3-5.6 3.1-11.5-3.1-11.5-8.4v-36.8c0-5.9 0.1-16 6-25l97.7-140.1h-85.1c-5.2 0-9.4-3.6-9.4-9.1zm-643.2 226.8c-4.7-0.4-8.5-3.9-8.9-8.5v-254c0-5.1 4.3-9.1 9.6-9.1h46.2c4.8 0.2 8.6 3.9 8.9 8.5v33.2h1c12-32.1 34.6-47.1 65.1-47.1 31 0 50.4 15 64.3 47.1 12-32.1 39.2-47.1 68.4-47.1 20.8 0 43.5 8.6 57.3 27.8 15.7 21.4 12.5 52.4 12.5 79.7l-0.1 160.3c0 5.1-4.2 9.2-9.5 9.2h-49.5c-4.9-0.4-8.9-4.3-8.9-9.2v-134.7c0-10.7 1-37.4-1.4-47.6-3.7-17-14.7-21.8-29.1-21.8-12 0-24.5 8-29.6 20.8-5.1 12.8-4.6 34.2-4.6 48.6v134.7c0 5.1-4.2 9.2-9.5 9.2h-49.5c-5-0.4-8.9-4.3-8.9-9.2v-134.7c0-28.3 4.6-70-30.6-70-35.5 0-34.2 40.7-34.2 70v134.7c0 5.1-4.2 9.2-9.5 9.2zm1078-133.7c0 77.5-43.9 139-113.2 139-72.2 0-111.5-63.1-111.5-141.7 0-79.1 39.8-140.6 111.5-140.6 73.4 0 113.2 63.1 113.2 143.3zm-151.6-10.7c0 31-0.5 97.3 38.4 97.3 38.3 0 40.1-53.5 40.1-86 0-21.5-0.9-47.1-7.3-67.4-5.6-17.7-16.7-24.6-32.4-24.6-36.5 0-38.8 49.7-38.8 80.7zm197.6 144.4c-5-0.4-8.9-4.3-8.9-9.2l-0.1-254.1c0.4-4.7 4.5-8.3 9.5-8.3h45.9c4.3 0.2 7.9 3.1 8.9 7.1v38.8h0.9c13.8-34.7 33.3-51.3 67.5-51.3 22.2 0 43.8 8 57.8 30 12.9 20.3 12.9 54.5 12.9 79.1v159.9c-0.5 4.4-4.6 8-9.5 8h-49.7c-4.5-0.4-8.3-3.7-8.8-8v-138c0-27.8 3.3-68.5-30.9-68.5-12.1 0-23.2 8.1-28.7 20.4-6.9 15.5-7.8 31-7.8 48.1v136.8c-0.1 5.1-4.4 9.2-9.7 9.2zm-572.2 0.5c-16.5-13.7-19.5-20-28.5-33-27.1 27.7-46.4 36-81.6 36-41.7 0-74.1-25.7-74.1-77.2 0-40.2 21.7-67.5 52.8-80.9 26.9-11.8 64.4-13.9 93.1-17.2v-6.4c0-11.7 0.9-25.7-6-35.8-6-9.2-17.6-12.9-27.8-12.9-18.9 0-35.7 9.7-39.8 29.7-0.8 4.5-4.1 8.9-8.6 9.1l-48-5.2c-4.1-0.9-8.6-4.2-7.4-10.4 11-58.2 63.7-75.7 110.7-75.7 24.1 0 55.6 6.4 74.6 24.6 24.1 22.5 21.8 52.5 21.8 85.2v77.1c0 23.2 9.6 33.4 18.7 45.9 3.1 4.5 3.8 9.8-0.2 13.2-10.1 8.4-28.1 24-38 32.8v-0.1c-3.3 2.9-8 3.1-11.7 1.2zm-38.3-121.9v-10.7c-35.8 0-73.7 7.7-73.7 49.9 0 21.3 11.2 35.8 30.2 35.8 13.9 0 26.4-8.6 34.3-22.5 9.7-17.1 9.2-33.2 9.2-52.5zm-599.2 120.7c-3.3 2.9-8 3.1-11.7 1.2-16.5-13.7-19.4-20-28.4-33-27.2 27.7-46.4 36-81.7 36-41.6 0-74.1-25.7-74.1-77.2 0-40.2 21.8-67.5 52.8-80.9 26.9-11.8 64.5-13.9 93.1-17.2v-6.4c0-11.7 1-25.7-5.9-35.8-6.1-9.2-17.7-12.9-27.8-12.9-18.9 0-35.8 9.7-39.9 29.7-0.8 4.5-4.1 8.9-8.5 9.1l-48.1-5.2c-4-0.9-8.5-4.2-7.4-10.4 11.1-58.2 63.7-75.7 110.8-75.7 24.1 0 55.5 6.4 74.6 24.6 24.1 22.5 21.8 52.5 21.8 85.2v77.1c0 23.2 9.6 33.4 18.6 45.9 3.2 4.5 3.9 9.8-0.1 13.2-10.1 8.4-28.1 24-38 32.8zm-49.9-120.6v-10.8c-35.8 0-73.6 7.7-73.6 49.9 0 21.4 11 35.8 30.1 35.8 13.9 0 26.4-8.5 34.2-22.4 9.8-17.2 9.3-33.2 9.3-52.5zm699.1 120.6z"/></svg>